<svg width="513" height="512" viewBox="0 0 513 512" fill="none" xmlns="http://www.w3.org/2000/svg">
<rect x="0.984863" width="512" height="512" rx="256" fill="url(#paint0_radial_480_36)"/>
<path d="M140.676 312.889L97.0092 190.722H123.759L154.676 281.139L184.592 190.722H210.759L167.009 312.889H140.676Z" fill="white"/>
<path d="M215.476 312.889V191.722H240.142V292.306H301.476V312.889H215.476Z" fill="white"/>
<path d="M388.776 267.972L412.692 275.556C409.026 288.889 402.915 298.806 394.359 305.306C385.859 311.75 375.054 314.972 361.942 314.972C345.72 314.972 332.387 309.444 321.942 298.389C311.498 287.278 306.276 272.111 306.276 252.889C306.276 232.556 311.526 216.778 322.026 205.556C332.526 194.278 346.331 188.639 363.442 188.639C378.387 188.639 390.526 193.056 399.859 201.889C405.415 207.111 409.581 214.611 412.359 224.389L387.942 230.222C386.498 223.889 383.47 218.889 378.859 215.222C374.304 211.556 368.748 209.722 362.192 209.722C353.137 209.722 345.776 212.972 340.109 219.472C334.498 225.972 331.692 236.5 331.692 251.056C331.692 266.5 334.47 277.5 340.026 284.056C345.581 290.611 352.804 293.889 361.692 293.889C368.248 293.889 373.887 291.806 378.609 287.639C383.331 283.472 386.72 276.917 388.776 267.972Z" fill="white"/>
<defs>
<radialGradient id="paint0_radial_480_36" cx="0" cy="0" r="1" gradientUnits="userSpaceOnUse" gradientTransform="translate(97.0925 64) rotate(51.5627) scale(571.947)">
<stop stop-color="#25D6E3"/>
<stop offset="1" stop-color="#DA291C"/>
</radialGradient>
</defs>
</svg>
