<svg width="32" height="32" viewBox="0 0 32 32" fill="none" xmlns="http://www.w3.org/2000/svg">
<path d="M0 16C0 7.16344 7.16344 0 16 0C24.8366 0 32 7.16344 32 16C32 24.8366 24.8366 32 16 32C7.16344 32 0 24.8366 0 16Z" fill="#8AE06B"/>
<path d="M14.8295 14.2978L20.3912 11.5913L20.4259 11.5744L20.409 11.6091L17.742 17.0961L20.8268 17.2057L20.8523 17.2066L20.837 17.227L18.5771 20.2428L18.5281 20.3231C18.3266 20.654 18.082 20.9679 17.7929 21.2571C15.848 23.2032 12.6947 23.2032 10.7498 21.2571C8.80488 19.311 8.80488 16.1558 10.7498 14.2096C11.0728 13.8864 11.4268 13.6186 11.8009 13.4044M14.8295 14.2978L11.9006 13.3627M14.8295 14.2978L14.7976 11.2662L14.7973 11.2403L14.7764 11.2555L11.8933 13.3515M14.8295 14.2978L11.9006 13.3627M11.8009 13.4044L11.8075 13.416L11.8009 13.4044L11.8009 13.4044ZM11.8009 13.4044L11.8933 13.3515M11.8933 13.3515L11.8927 13.3519L11.9006 13.3627M11.8933 13.3515L11.8939 13.3511L11.9006 13.3627M10.8365 11.7148L16.702 7.45068L16.7412 11.1828L16.7415 11.2038L16.7604 11.1946L24.6354 7.36221L20.8067 15.2394L20.7977 15.2578L20.8182 15.2585L24.6407 15.3943L20.1891 21.3348L20.1891 21.3348L20.1884 21.3359C19.9072 21.7976 19.567 22.2336 19.1679 22.6329C16.4636 25.3388 12.0791 25.3388 9.37486 22.6329C6.67059 19.927 6.67059 15.5398 9.37486 12.8338C9.82099 12.3875 10.3128 12.0147 10.8353 11.7156L10.8353 11.7157L10.8365 11.7148Z" fill="black" stroke="black" stroke-width="0.0266667"/>
</svg>
