<svg width="32" height="32" viewBox="0 0 32 32" fill="none" xmlns="http://www.w3.org/2000/svg">
<path d="M0 16C0 7.16344 7.16344 0 16 0C24.8366 0 32 7.16344 32 16C32 24.8366 24.8366 32 16 32C7.16344 32 0 24.8366 0 16Z" fill="#8AE06B"/>
<path fill-rule="evenodd" clip-rule="evenodd" d="M17.721 17.1087L20.397 11.6033L14.8164 14.3191L14.7842 11.2663L11.9006 13.3627L11.8075 13.416C11.4344 13.6296 11.0814 13.8967 10.7592 14.2191C8.81952 16.16 8.81952 19.3068 10.7592 21.2477C12.6989 23.1886 15.8438 23.1886 17.7835 21.2477C18.0718 20.9592 18.3158 20.6462 18.5167 20.3162L18.566 20.2354L20.8263 17.219L17.721 17.1087ZM24.6667 15.3819L20.1998 21.3428C19.918 21.8054 19.5772 22.2422 19.1773 22.6423C16.4678 25.3535 12.0749 25.3535 9.36544 22.6423C6.65597 19.9312 6.65597 15.5356 9.36544 12.8244C9.81241 12.3772 10.3052 12.0037 10.8287 11.704L16.715 7.42471L16.7546 11.1826L24.6643 7.33334L20.8187 15.2452L24.6667 15.3819Z" fill="black"/>
<path fill-rule="evenodd" clip-rule="evenodd" d="M17.721 17.1087L20.8263 17.219L18.566 20.2354L18.5167 20.3162C18.3158 20.6462 18.0718 20.9592 17.7835 21.2477C15.8438 23.1886 12.6989 23.1886 10.7592 21.2477C8.81952 19.3068 8.81952 16.16 10.7592 14.2191C11.0814 13.8967 11.4344 13.6296 11.8075 13.416L11.9006 13.3627L14.7842 11.2663L14.8164 14.3191L20.397 11.6033L17.721 17.1087ZM14.8426 14.2766L20.4547 11.5455L17.7629 17.0835L20.8783 17.1942L18.5881 20.2503L18.5395 20.3301C18.3375 20.6618 18.0922 20.9766 17.8024 21.2665C15.8523 23.2179 12.6905 23.2179 10.7404 21.2665C8.79025 19.3153 8.79025 16.1516 10.7404 14.2002C11.0642 13.8762 11.4191 13.6076 11.7943 13.3929C11.7943 13.3929 11.7943 13.3929 11.7943 13.3929L11.886 13.3403L14.8104 11.2143L14.8426 14.2766ZM10.8287 11.704C10.3052 12.0037 9.81241 12.3772 9.36544 12.8244C6.65597 15.5356 6.65597 19.9312 9.36544 22.6423C12.0749 25.3535 16.4678 25.3535 19.1773 22.6423C19.5772 22.2422 19.918 21.8054 20.1998 21.3428L24.6667 15.3819L20.8187 15.2452L24.6643 7.33334L16.7546 11.1826L16.715 7.42471L10.8287 11.704ZM16.6889 7.47666L10.842 11.7273C10.3206 12.0258 9.82959 12.3977 9.3843 12.8433C6.68523 15.544 6.68523 19.9228 9.3843 22.6235C12.0834 25.3242 16.4594 25.3242 19.1584 22.6235C19.5568 22.2249 19.8963 21.7898 20.177 21.3289L20.1784 21.3267L24.6147 15.4068L20.7768 15.2704L24.6066 7.39109L16.7284 11.225L16.6889 7.47666Z" fill="black"/>
</svg>
