<svg width="32" height="32" viewBox="0 0 32 32" fill="none" xmlns="http://www.w3.org/2000/svg">
<path d="M0 16C0 7.16344 7.16344 0 16 0C24.8366 0 32 7.16344 32 16C32 24.8366 24.8366 32 16 32C7.16344 32 0 24.8366 0 16Z" fill="#353960"/>
<path fill-rule="evenodd" clip-rule="evenodd" d="M17.6538 17.016L20.4413 11.2812L14.6281 14.1101L14.5947 10.9302L11.5908 13.1139L11.4939 13.1695C11.1052 13.3919 10.7375 13.6702 10.4019 14.006C8.38139 16.0278 8.38139 19.3057 10.4019 21.3275C12.4225 23.3492 15.6984 23.3492 17.7189 21.3275C18.0192 21.027 18.2733 20.7009 18.4827 20.3572L18.534 20.273L20.8885 17.131L17.6538 17.016ZM24.8888 15.2173L20.2359 21.4266C19.9423 21.9085 19.5873 22.3635 19.1708 22.7802C16.3484 25.6043 11.7724 25.6043 8.95006 22.7802C6.12769 19.9561 6.12769 15.3773 8.95006 12.5532C9.41565 12.0874 9.92897 11.6983 10.4743 11.3862L16.6059 6.92853L16.6471 10.843L24.8864 6.83336L20.8805 15.0749L24.8888 15.2173Z" fill="white"/>
</svg>
