<svg width="16" height="16" viewBox="0 0 16 16" fill="none" xmlns="http://www.w3.org/2000/svg">
<path fill-rule="evenodd" clip-rule="evenodd" d="M9.32304 8.81284L11.553 4.22495L6.90251 6.48811L6.87572 3.94415L4.47265 5.69115L4.39512 5.73556C4.08419 5.91354 3.79004 6.13614 3.52153 6.4048C1.90512 8.02223 1.90512 10.6446 3.52153 12.262C5.13797 13.8794 7.75869 13.8794 9.3751 12.262C9.61537 12.0216 9.81867 11.7607 9.98613 11.4857L10.0272 11.4184L11.9108 8.90477L9.32304 8.81284ZM15.1111 7.37385L11.3887 12.3412C11.1539 12.7268 10.8698 13.0908 10.5366 13.4242C8.27871 15.6835 4.61794 15.6835 2.36005 13.4242C0.102152 11.1649 0.102152 7.50187 2.36005 5.24258C2.73252 4.8699 3.14317 4.55868 3.57941 4.30894L8.4847 0.742822L8.51767 3.87443L15.1091 0.666687L11.9044 7.25992L15.1111 7.37385Z" fill="white"/>
</svg>
