<svg width="125" height="125" viewBox="0 0 125 125" fill="none" xmlns="http://www.w3.org/2000/svg">
<circle cx="62.5" cy="62.5" r="59" fill="#173C2A" stroke="#D0AC4E" stroke-width="7"/>
<path d="M42.248 91H37.928C37.032 91 36.584 90.552 36.584 89.656L36.584 30.616C36.584 29.72 37.032 29.272 37.928 29.272H60.392C64.808 29.272 68.264 30.552 70.76 33.112C73.256 35.608 74.504 39.064 74.504 43.48V54.136C74.504 58.616 73.256 62.104 70.76 64.6C68.264 67.096 64.808 68.344 60.392 68.344H44.552C43.912 68.344 43.592 68.632 43.592 69.208L43.592 89.656C43.592 90.552 43.144 91 42.248 91ZM44.552 62.104H59.432C64.808 62.104 67.496 59.352 67.496 53.848V43.768C67.496 38.2 64.808 35.416 59.432 35.416H44.552C43.912 35.416 43.592 35.704 43.592 36.28V61.24C43.592 61.816 43.912 62.104 44.552 62.104Z" fill="#D1AD4C"/>
<path d="M56.9128 91.1647H52.5928C51.6968 91.1647 51.2488 90.7167 51.2488 89.8207L51.2488 30.7807C51.2488 29.8847 51.6968 29.4367 52.5928 29.4367H75.0568C79.4728 29.4367 82.9288 30.7167 85.4248 33.2767C87.9208 35.7727 89.1688 39.2287 89.1688 43.6447V54.3007C89.1688 58.7807 87.9208 62.2687 85.4248 64.7647C82.9288 67.2607 79.4728 68.5087 75.0568 68.5087H59.2168C58.5768 68.5087 58.2568 68.7967 58.2568 69.3727L58.2568 89.8207C58.2568 90.7167 57.8088 91.1647 56.9128 91.1647ZM59.2168 62.2687H74.0968C79.4728 62.2687 82.1608 59.5167 82.1608 54.0127V43.9327C82.1608 38.3647 79.4728 35.5807 74.0968 35.5807H59.2168C58.5768 35.5807 58.2568 35.8687 58.2568 36.4447V61.4047C58.2568 61.9807 58.5768 62.2687 59.2168 62.2687Z" fill="white"/>
<rect x="67" y="91" width="7" height="23" rx="2" transform="rotate(-90 67 91)" fill="#D1AD4C"/>
<circle cx="78.5" cy="76.5" r="3.5" fill="#D1AD4C"/>
</svg>
