<svg width="700" height="700" viewBox="0 0 700 700" fill="none" xmlns="http://www.w3.org/2000/svg">
<g clip-path="url(#clip0_1_6631)">
<rect width="700" height="700" fill="#DFF9E3"/>
<circle cx="350" cy="350" r="510" fill="url(#paint0_linear_1_6631)"/>
<path d="M193.066 444.03C213.532 449.515 235.362 443.659 250.343 428.679L276.495 402.528C283.981 395.041 294.9 392.113 305.137 394.856C307.879 405.085 304.951 416.003 297.465 423.497L271.313 449.649C256.333 464.629 250.484 486.466 255.962 506.925L264.827 539.999L321.237 483.59C336.218 468.61 342.066 446.773 336.588 426.307L327.73 393.24L323.298 376.703L306.76 372.27L273.693 363.412C253.227 357.927 231.397 363.783 216.416 378.763L159.999 435.172L193.066 444.037L193.066 444.03Z" fill="#DFF9E3"/>
<path d="M255.969 193.066C250.484 213.532 256.34 235.362 271.321 250.342L297.472 276.493C304.959 283.98 307.887 294.899 305.144 305.135C294.915 307.878 283.996 304.95 276.502 297.463L250.351 271.312C235.37 256.331 213.532 250.483 193.074 255.961L159.999 264.826L216.409 321.235C231.389 336.216 253.227 342.064 273.693 336.586L306.76 327.728L323.297 323.296L327.73 306.758L336.588 273.691C342.073 253.226 336.218 231.396 321.237 216.415L264.827 159.999L255.962 193.066L255.969 193.066Z" fill="white"/>
<path d="M506.922 255.968C486.456 250.483 464.626 256.339 449.645 271.319L423.494 297.471C416.007 304.957 405.089 307.885 394.852 305.143C392.109 294.913 395.037 283.995 402.524 276.501L428.675 250.35C443.656 235.369 449.505 213.532 444.027 193.073L435.169 159.999L378.759 216.408C363.778 231.389 357.93 253.226 363.408 273.691L372.266 306.758L376.699 323.296L393.236 327.728L426.303 336.586C446.769 342.072 468.599 336.216 483.58 321.235L539.99 264.826L506.922 255.961L506.922 255.968Z" fill="#DFF9E3"/>
<path d="M444.03 506.929C449.515 486.463 443.659 464.634 428.678 449.653L402.527 423.502C395.04 416.015 392.112 405.097 394.855 394.86C405.084 392.117 416.003 395.045 423.497 402.532L449.649 428.683C464.629 443.664 486.467 449.512 506.925 444.034L540 435.169L483.591 378.76C468.61 363.78 446.772 357.931 426.306 363.409L393.239 372.267L376.702 376.699L372.269 393.237L363.411 426.304C357.926 446.77 363.782 468.599 378.762 483.58L435.172 539.989L444.037 506.922L444.03 506.929Z" fill="white"/>
</g>
<defs>
<linearGradient id="paint0_linear_1_6631" x1="-8.41668" y1="-8.41668" x2="702.75" y2="702.75" gradientUnits="userSpaceOnUse">
<stop stop-color="#58D074"/>
<stop offset="1" stop-color="#28A745"/>
</linearGradient>
<clipPath id="clip0_1_6631">
<rect width="700" height="700" fill="white"/>
</clipPath>
</defs>
</svg>
