<svg width="512" height="512" viewBox="0 0 512 512" fill="none" xmlns="http://www.w3.org/2000/svg">
<g clip-path="url(#clip0_890_12951)">
<rect width="512" height="512" rx="256" fill="#BD1413"/>
<path fill-rule="evenodd" clip-rule="evenodd" d="M41.5857 91.7656C40.298 128.875 41.5432 167.985 41.4893 205.328C41.4374 241.584 39.2077 278.279 48.0201 312.338C73.316 410.105 163.603 471.459 247.487 509.214C259.592 514.663 256.976 514.015 268.984 508.648C275.633 505.676 282.199 502.525 288.493 499.517C363.796 463.532 432.405 404.524 459.203 328.817C471.473 294.153 470.347 266.055 470.266 227.104C470.188 189.317 470.147 151.424 470.493 113.641C470.596 102.424 472.545 92.3756 468.041 89.0486C463.44 85.6497 454.256 82.1484 448.933 79.3922C350.161 28.2489 228.588 18.0626 119.782 55.476C104.945 60.5775 92.7792 65.8038 79.0742 72.0086C65.592 78.1124 53.932 85.2129 41.5857 91.7656Z" fill="#BD1413"/>
<path fill-rule="evenodd" clip-rule="evenodd" d="M281 354L337.119 353.692C336 350.829 332.889 348.571 330.694 344.848C328.5 341.123 327.167 336.66 327.025 331.367C326.725 320.131 326.981 308.268 327.048 296.981C356.27 298.217 376.455 297.649 394.108 281.697C421.877 256.604 418.003 189.927 362.945 181.441C343.853 178.499 291.454 182.242 281.811 180C283.515 187.119 293.652 184.904 293.221 217.067C292.992 234.191 294.491 331.067 292.267 339.915C291.311 343.716 290.272 345.336 287.699 347.93C285.302 350.347 282.977 351.31 281 354Z" fill="#FCF9F4"/>
<path fill-rule="evenodd" clip-rule="evenodd" d="M184.796 305L209.76 304.963C223.129 267.021 247.652 206.95 263.956 166.35C270.055 151.164 275.373 133.495 282 119.018L229.119 119C238.314 129.342 245.515 124.923 236.837 147.05C232.483 158.153 228.465 167.746 224.254 179.19C221.03 187.947 202.994 238.339 199.652 242.7L162.428 149.366C154.406 128.984 164.575 126.848 171.011 119.037L105 119.109C118.846 129.577 122.239 141.968 129.622 160.658C136.02 176.856 141.573 192.044 147.895 208.949C152.598 221.524 181.31 300.337 184.796 305Z" fill="#FCF9F4"/>
<path fill-rule="evenodd" clip-rule="evenodd" d="M222.544 364.808C222.531 386.104 224.796 393.46 213.696 407.631C212.457 409.213 213.194 408.035 212 410L319.334 409.995C321.814 396.679 328.816 387.729 329 370.324C314.329 381.305 309.833 381.312 286.672 381.268L254.406 381.245C253.228 338.271 254.062 286.782 254.183 244C247.49 257.507 222.509 310.731 222.504 325.846C222.5 338.832 222.552 351.821 222.544 364.808Z" fill="#FCF9F4"/>
<path fill-rule="evenodd" clip-rule="evenodd" d="M327 216.926L327.003 265.919C351.83 266.092 374.071 267.828 375.868 240.726C378.084 207.287 352.089 210.11 327.003 210.03L327 216.926Z" fill="#BD1413"/>
</g>
<defs>
<clipPath id="clip0_890_12951">
<rect width="512" height="512" rx="256" fill="white"/>
</clipPath>
</defs>
</svg>
