<svg width="160" height="160" viewBox="0 0 160 160" fill="none" xmlns="http://www.w3.org/2000/svg">
<rect width="160" height="160" rx="80" fill="url(#paint0_linear_8647_77677)"/>
<path d="M29.5217 75.6808C29.5217 65.0425 31.6957 56.5319 42.5652 50.1489C39.3043 58.6596 38.2174 65.0426 38.2174 73.5532C38.2174 88.4468 44.7391 116.106 69.7391 127.809C67.565 129.936 62.1304 131 57.7826 131C39.3041 131 22.9997 113.979 23 100.149C23 94.8298 24.0867 91.6383 27.3478 88.4468C31.6954 106.532 37.1302 116.106 51.2609 124.617C39.3041 111.851 29.5217 91.6383 29.5217 75.6808Z" fill="white"/>
<path d="M109.957 31C105.609 31 101.261 31 96.913 36.3191C101.261 38.4468 101.261 40.5745 101.261 43.766C101.261 43.766 101.734 55.9005 101.75 65.0426C101.767 74.75 101.244 88.4469 101.244 88.4469C101.244 97.8475 93.4579 105.468 83.853 105.468H81.6791C77.7523 105.468 74.1296 104.194 71.2185 102.046C66.1818 98.3291 64.9892 91.6585 64.7528 85.4899C64.6849 83.7162 64.6528 81.8732 64.6528 79.9362V65.0426C64.6528 51.2128 65.7398 44.8298 69.0007 33.1277C50.5224 37.383 44.7391 54.4043 44.7391 73.5532C44.7391 95.1616 53.4882 110.962 67.5118 119.489C73.3404 123.034 80.7891 122.489 87.6516 122.489H88.2008C92.8197 122.489 97.2284 121.608 101.261 120.008C113.999 114.954 122.983 102.727 122.983 88.4469L123 83.7022V43.766C123 36.7155 117.16 31 109.957 31Z" fill="white"/>
<defs>
<linearGradient id="paint0_linear_8647_77677" x1="80" y1="0" x2="80" y2="160" gradientUnits="userSpaceOnUse">
<stop stop-color="#E6CF54"/>
<stop offset="1" stop-color="#CBA51E"/>
</linearGradient>
</defs>
</svg>
