<svg width="32" height="32" viewBox="0 0 32 32" fill="none" xmlns="http://www.w3.org/2000/svg">
<rect width="32" height="32" rx="16" fill="#272B4F"/>
<path d="M6.30435 14.9362C6.30435 12.8085 6.73913 11.1064 8.91304 9.82979C8.26087 11.5319 8.04348 12.8085 8.04348 14.5106C8.04348 17.4894 9.34783 23.0213 14.3478 25.3617C13.913 25.7872 12.8261 26 11.9565 26C8.26082 26 4.99995 22.5957 5 19.8298C5 18.766 5.21734 18.1277 5.86957 17.4894C6.73908 21.1064 7.82603 23.0213 10.6522 24.7234C8.26082 22.1702 6.30435 18.1277 6.30435 14.9362Z" fill="white"/>
<path d="M22.3913 6C21.5217 6 20.6522 6 19.7826 7.06383C20.6522 7.48936 20.6522 7.91489 20.6522 8.55319C20.6522 8.55319 20.7468 10.9801 20.75 12.8085C20.7534 14.75 20.6489 17.4894 20.6489 17.4894C20.6489 19.3695 19.0916 20.8936 17.1706 20.8936H16.7358C15.9505 20.8936 15.2259 20.6389 14.6437 20.2092C13.6364 19.4658 13.3978 18.1317 13.3506 16.898C13.337 16.5432 13.3306 16.1746 13.3306 15.7872V12.8085C13.3306 10.0426 13.548 8.76596 14.2001 6.42553C10.5045 7.2766 9.34783 10.6809 9.34783 14.5106C9.34783 18.8323 11.0976 21.9924 13.9024 23.6979C15.0681 24.4067 16.5578 24.2979 17.9303 24.2979H18.0402C18.9639 24.2979 19.8457 24.1217 20.6522 23.8017C23.1998 22.7908 24.9967 20.3455 24.9967 17.4894L25 16.5404V8.55319C25 7.1431 23.832 6 22.3913 6Z" fill="white"/>
</svg>
