<svg width="1000" height="1000" viewBox="0 0 1000 1000" fill="none" xmlns="http://www.w3.org/2000/svg">
<g clip-path="url(#clip0_5893_5)">
<rect width="1000" height="1000" rx="500" fill="#272B4F"/>
<circle cx="500" cy="500" r="500" fill="url(#paint0_linear_5893_5)"/>
<circle cx="500" cy="500" r="500" fill="url(#paint1_linear_5893_5)"/>
<circle cx="500" cy="500" r="441" fill="url(#paint2_linear_5893_5)"/>
<circle cx="500" cy="500" r="414" fill="url(#paint3_linear_5893_5)"/>
<circle cx="500" cy="500" r="414" fill="url(#paint4_linear_5893_5)" fill-opacity="0.6"/>
<g filter="url(#filter0_d_5893_5)">
<path d="M405 676.5C350.2 694.5 285.5 740.667 260 761.5L257.5 758C263.167 752.333 275.5 740.7 279.5 739.5C284.5 738 282.5 735.5 279.5 734.5C276.5 733.5 273 732 277 729C281 726 286.5 721 285.5 719C296 711.5 302 710 306.5 714.5C310.1 718.1 312.333 717.333 313 716.5C315.8 714.5 316.357 709 319.5 703.5C329.5 686 355.429 673 361.5 681.5C364 685 363.5 688.5 368 686C372.5 683.5 389.5 675 398.5 673C407.5 671 408 675.5 405 676.5Z" fill="#FAD324"/>
<path fill-rule="evenodd" clip-rule="evenodd" d="M260.251 617.965C258.142 618.2 256.032 618.434 254.001 618.747L253.376 619.059V619.372C253.787 619.509 254.138 619.706 254.455 619.884C254.862 620.112 255.213 620.309 255.564 620.309C257.907 620.622 260.173 620.934 262.439 621.247C264.704 621.559 266.97 621.872 269.314 622.184C272.126 622.497 274.626 622.497 277.439 622.497C279.026 622.585 280.613 622.723 282.208 622.861C286.263 623.214 290.364 623.57 294.626 623.122C301.189 622.497 307.126 621.247 313.064 618.434C314.626 617.809 316.189 616.872 317.751 615.934C317.126 615.622 316.501 615.622 316.189 615.622C306.501 615.934 296.501 616.247 286.501 616.247C281.814 616.559 277.127 616.559 272.44 616.559H272.439H271.189H266.189L266.501 617.184C264.47 617.497 262.36 617.731 260.251 617.965ZM218.689 645.934C218.689 645.934 221.189 646.247 222.439 646.559H222.751C223.996 645.315 224.844 646.053 225.611 646.72C225.807 646.891 225.998 647.057 226.189 647.184C228.586 649.068 230.983 651.045 233.432 653.065C235.452 654.731 237.507 656.427 239.626 658.122C239.782 658.278 240.017 658.434 240.251 658.59C240.485 658.747 240.72 658.903 240.876 659.059V659.684C240.355 659.788 239.834 659.927 239.314 660.066C238.272 660.344 237.23 660.622 236.189 660.622H229.939C226.189 660.622 223.064 661.559 220.251 664.059C218.376 662.497 217.439 659.684 218.064 657.184C218.376 656.247 218.767 655.31 219.157 654.372C219.548 653.435 219.939 652.497 220.251 651.559C221.501 648.434 221.189 647.809 218.689 645.934ZM226.189 629.997C229.001 628.434 230.564 626.247 229.939 622.497V622.809C228.737 623.095 227.534 623.371 226.336 623.646C220.993 624.872 215.726 626.08 210.876 628.122C209.626 628.747 209.001 629.684 209.314 631.247C210.564 630.622 211.814 631.247 212.751 632.184C213.064 632.497 213.376 632.887 213.689 633.278C214.001 633.668 214.314 634.059 214.626 634.372C215.876 635.934 217.751 635.934 219.314 634.372C219.481 634.204 219.626 634.037 219.761 633.881C220.129 633.457 220.419 633.122 220.876 633.122C221.306 632.864 221.759 632.582 222.23 632.29C223.47 631.52 224.829 630.676 226.189 629.997Z" fill="#FAD324"/>
<path d="M662.5 579C632.5 578 608.5 562.5 586 540.5C577.5 529 584 521 587 525.5C589 528.5 593.5 536 610.5 547C627.5 558 649.5 548 657 540.5C664.5 533 676 527 686 529.5C696 532 707.5 536 717.5 558C727.5 580 692.5 580 662.5 579Z" fill="#FAD324"/>
<path d="M488 605C493.6 605 497 609 498 611C498 614.5 496 619.389 488 618.5C483.5 618 474 613.5 474 609.5C474 605.5 481 605 488 605Z" fill="#FAD324"/>
<path d="M596 608.5C584 609 590 604 597.5 603.5C646.5 602.5 754 601 823 626.5C824.5 610.5 827.5 576.5 799.5 536C748.5 465 746 447 745.5 442.5C745 438 747.5 438 748 438C757.5 466 768 483.5 797 522.5C826 561.5 831 594 826 622C829.5 643.5 827.5 661.5 814.5 683.5C823 665 825.5 646.5 824 631C756 603 608 608 596 608.5Z" fill="#FAD324"/>
<path d="M585.5 585C574.5 563 558 555.5 555.5 561C546.5 567.5 533.75 601 530 608.5C528 612.5 524.5 615.5 526 618.5C521 632 523.5 635.5 527 634.5C530.5 633.5 535 633.5 536.5 635.5C539.7 638.7 544.5 639.833 546.5 640C557.5 640 555.5 635.6 566 633.5C583.5 630 596.5 607 585.5 585Z" fill="#FAD324"/>
<path d="M727 759.5C687.8 723.1 619 689 589.5 676.5C587.14 675.5 588.8 669.1 596 671.5C638.8 686.7 706.167 734.167 734.5 756C733.333 756.667 730.2 758.3 727 759.5Z" fill="#FAD324"/>
<path d="M800.5 704.5C749.7 674.1 634.333 648.833 583 640C577 638.968 578 633.973 586 635C676.4 646.6 769.333 682.833 804.5 699.5C804 700.333 802.5 702.5 800.5 704.5Z" fill="#FAD324"/>
<path d="M555.5 730.5C553.5 733 551.5 731.5 546 735.5C543 737.5 542.1 739.5 540.5 741.5C538.5 744 538 743 535 741.5C532 740 532 730.5 533.5 727.5C535 724.5 537.5 724.5 539 722C540.5 719.5 543 718.5 546 719C549 719.5 549 722 552 723C555 724 557.5 728 555.5 730.5Z" fill="#FAD324"/>
<path d="M219 276C207 270.4 200 271 198 272C193.5 276 187.1 294 187.5 318C186.5 368.5 215 409.5 234 426.5C253 443.5 263.5 431.5 267.5 425C271.5 418.5 267.5 419.5 257.5 417C247.5 414.5 222.5 384.5 212 369.5C201.5 354.5 208 348.5 217.5 343.5C227 338.5 249.5 338.5 261.5 334.5C273.5 330.5 273.5 317.5 264.5 307.5C255.5 297.5 234 283 219 276Z" fill="#FAD324"/>
<path d="M521.5 707.5C521.5 711 509 718.5 497 719C481 719 471.5 712.8 471.5 710C471.5 707.2 469.833 704.5 469 703.5C470.167 701.833 474.2 699.5 481 703.5C489.5 708.5 500 709 509 705C518 701 521.5 704 521.5 707.5Z" fill="#FAD324"/>
<path d="M522 738C522 742 521 750 494 752C481 752 473.4 748.9 471 746.5C468 743.5 463.5 741.5 460.5 743C457.5 744.5 456 745 454 741.5C452 738 450.5 738 444 732C437.5 726 441 720 444 715C447 710 452 714 451.5 716C459.5 717 465 719.5 470 725.5C475 731.5 491.5 738 511 735.5C516.5 734.5 522 734 522 738Z" fill="#FAD324"/>
<path d="M430 743C432 750.5 438 752 443.5 753C448.5 754.196 446.5 757.5 442 759C437.5 760.5 435 758.5 417.5 755.5C400 752.5 372.5 750.5 364.5 749.5C356.5 748.5 335 748.5 329 750.5C323 752.5 320.5 753 319 749.5C317.5 746 318.5 742 325 736C331.5 730 352 731 357.5 732C363 733 365 734 364.5 737C364 740 366 742 368 742C370 742 371 741 374.5 743C378 745 381.5 742 386.5 742C391.5 742 393.5 744 399.5 742C405.5 740 414.5 738 415.5 736C416.5 734 417.5 733 422 732C426.5 731 428 735.5 430 743Z" fill="#FAD324"/>
<path d="M403.5 723C398.7 725.8 382.833 731.833 375.5 734.5C369.5 736.682 366.5 736.5 366.5 727C366.5 719.5 363 716 349 716C341.5 716 344 713.5 346 710.5C348 707.5 365 701 369.5 699C374 697 380.5 696.5 382 699C383.5 701.5 388 703.5 392 705C396 706.5 400.5 707 405.5 712C410.5 717 409.5 719.5 403.5 723Z" fill="#FAD324"/>
<path d="M660 619.5C656 619.5 657.5 615.5 660.5 615.5H679.5C684 615.5 688 615.5 687.5 617.5C687 619.5 679 621.5 675 621.5C671 621.5 664 619.5 660 619.5Z" fill="#FAD324"/>
<path d="M675 504.5C678.5 518.5 667.5 512.5 665 506C663 500.8 662.833 497.833 665 496C667.167 494.167 672.875 496 675 504.5Z" fill="#FAD324"/>
<path d="M808.5 346.5C805.7 374.1 786 396.333 776.5 404C775.833 402.667 775.1 399.4 777.5 397C795 372.5 803 350 805 328C807 306 804 281 795.5 263C776.5 228.5 761 225.5 734 222C694 217.5 655.5 249 653.5 251C651.5 253 651 252.5 649 251C634.6 243 613.667 259.667 605 269C601.833 264.333 593.4 253.3 585 246.5C574.5 238 561 237.5 558.5 237.5C556.5 237.5 554 235.833 553 235C553.333 236.167 552.8 239.2 548 242C542 245.5 545 251 548.5 250C556.5 248 563 253 562.5 257.5C562 262 561 271.5 564 279C567 286.5 554 287.5 551.5 290C553.5 292 563.5 290.5 568.5 289C573.5 287.5 577 292.5 574 294.5C571 296.5 566 300.5 571.5 302.5C577 304.5 585 307.5 567 320.5C542.5 336.5 550.5 345 539.5 381.5C528.5 418 520.5 465.5 519 473.5C517.5 481.5 513.5 483 509.5 483.5C505.5 484 501 488 496.5 488C492 488 487 484 486 486.5C485 489 493.5 491.5 496.5 491.5C499.5 491.5 519.5 483.5 525.5 488C531.5 492.5 522.5 494.5 523.5 497.5C524.5 500.5 536 498 546.5 504.5C557 511 555 512.5 544 513C533 513.5 534.5 521.5 536 540.5C537.5 559.5 529 572 528 582.5C527 593 521 603.5 512 601.5C504.8 599.9 491.333 600.833 485.5 601.5C464.5 604 463 592.5 447 540.5C440.577 519.625 432 533.5 429.5 527C427 520.5 437.5 516.5 441.5 507C448 492 440 484 435 466.5C430 449 432 445 433.5 441C435 437 436 424.5 431.5 423.5C427 422.5 426 433 401.5 431.5C377 430 368 413 339.5 407.5C333.606 406.363 319.5 405.625 321 403C323 399.5 320.453 399.122 319 399.5C316.181 400.233 315.404 408.253 314.5 410.5C314.105 411.483 324.398 411.645 323.512 413C321.507 416.065 317.996 419.915 311.5 424.5C306.879 427.762 309.5 431 315.5 434C321.5 437 336 447 335.5 447.5C331.1 472.7 324.333 496 321.5 504.5C317.5 514.5 325.051 519.5 329 530.5C334.6 546.1 346.667 550.667 352 551C406.466 552.911 416.5 502.5 413.5 466.5C412.3 452.1 421.9 452.2 423.5 459C425.1 465.8 428 478.5 428 488C428 517.5 407.5 547.5 360.5 579.5C345.326 589.831 346.5 595.5 359 599C371.5 602.5 378.5 596.5 382.5 588.5C385.7 582.1 404.5 557.833 413.5 546.5C423 532.5 430.333 539 432 546.5C433 551 430.5 549 451 592.5C471.5 636 440 643.5 428 648C418.4 651.6 414.333 649.5 413.5 648C427.5 643 426 634.771 408.5 638C324.5 653.5 261 672 190 706.5L188 702.5C284.5 655.5 355.5 640.5 370 638C384.5 635.5 382 634.5 376.5 629C366.9 619 374.833 615.167 380 614.5C413.5 612 409 606.372 392 606C264 603.2 189.667 619.167 168.5 627.5V620.5C190 615.5 190 615 188 608C187.009 604.533 184 585.5 190 570.5C194.8 558.5 213.333 545.5 222 540.5C217.833 540.5 209.5 539.8 209.5 537C209.5 533.5 214 534.5 223 524C261.5 475.5 287 424 289.5 409C292 394 295 386.5 300.5 386.5C306 386.5 310.5 388 311.5 383C312.5 375 308.5 369 304.5 361C300.5 353 303 344 307.5 347C312 350 323.5 352.5 324.5 350.5C325.5 348.5 322 347.5 315.5 342C309 336.5 305.5 329.5 301.5 323.5C297.5 317.5 308 315 318 315C284.5 266.5 301.5 249.5 255.5 230C246.328 226.112 246 225 253 224C266.5 222 304.5 224.5 320.5 236C336.5 247.5 340 256 341.5 258C342.7 259.6 345 259.333 346 259C345.167 259.667 343.5 261.7 343.5 264.5C343.5 268 347.5 278 347.5 283C347.5 288 344.5 288.5 344.5 293C344.5 297.5 352 296.5 352 300.5C352 304.5 338.5 310.5 334 313.5C338 315 344.5 312.5 355.5 312C366.5 311.5 368.5 315.5 378 315.5C372.8 303.9 357.833 295.333 351 292.5C354.5 288 372 283 389.5 281.5C359 280.5 354.8 277.5 356 265.5C357 255.5 359 249.5 361.5 249.5C364 249.5 366.5 254 370 258C374 249.5 381 246 386 243.5C391 241 394.5 239.5 394.5 246C393.5 263 402.5 269 404.5 266.5C426.9 242.1 452.167 234 462 233C457 251 455 253.5 463 255C476.6 234.2 506.667 228 520 227.5C536.5 226.5 583 224.5 608 263.5C615.5 256.5 631 245.5 639 244.5C645.4 243.7 652 246.833 654.5 248.5C661.5 241.5 680.3 226.5 699.5 222.5C723.5 217.5 765.5 212 788 241C810.5 270 812 312 808.5 346.5Z" fill="#FFD208"/>
<path d="M808.5 346.5C805.7 374.1 786 396.333 776.5 404C775.833 402.667 775.1 399.4 777.5 397C795 372.5 803 350 805 328C807 306 804 281 795.5 263C776.5 228.5 761 225.5 734 222C694 217.5 655.5 249 653.5 251C651.5 253 651 252.5 649 251C634.6 243 613.667 259.667 605 269C601.833 264.333 593.4 253.3 585 246.5C574.5 238 561 237.5 558.5 237.5C556.5 237.5 554 235.833 553 235C553.333 236.167 552.8 239.2 548 242C542 245.5 545 251 548.5 250C556.5 248 563 253 562.5 257.5C562 262 561 271.5 564 279C567 286.5 554 287.5 551.5 290C553.5 292 563.5 290.5 568.5 289C573.5 287.5 577 292.5 574 294.5C571 296.5 566 300.5 571.5 302.5C577 304.5 585 307.5 567 320.5C542.5 336.5 550.5 345 539.5 381.5C528.5 418 520.5 465.5 519 473.5C517.5 481.5 513.5 483 509.5 483.5C505.5 484 501 488 496.5 488C492 488 487 484 486 486.5C485 489 493.5 491.5 496.5 491.5C499.5 491.5 519.5 483.5 525.5 488C531.5 492.5 522.5 494.5 523.5 497.5C524.5 500.5 536 498 546.5 504.5C557 511 555 512.5 544 513C533 513.5 534.5 521.5 536 540.5C537.5 559.5 529 572 528 582.5C527 593 521 603.5 512 601.5C504.8 599.9 491.333 600.833 485.5 601.5C464.5 604 463 592.5 447 540.5C440.577 519.625 432 533.5 429.5 527C427 520.5 437.5 516.5 441.5 507C448 492 440 484 435 466.5C430 449 432 445 433.5 441C435 437 436 424.5 431.5 423.5C427 422.5 426 433 401.5 431.5C377 430 368 413 339.5 407.5C333.606 406.363 319.5 405.625 321 403C323 399.5 320.453 399.122 319 399.5C316.181 400.233 315.404 408.253 314.5 410.5C314.105 411.483 324.398 411.645 323.512 413C321.507 416.065 317.996 419.915 311.5 424.5C306.879 427.762 309.5 431 315.5 434C321.5 437 336 447 335.5 447.5C331.1 472.7 324.333 496 321.5 504.5C317.5 514.5 325.051 519.5 329 530.5C334.6 546.1 346.667 550.667 352 551C406.466 552.911 416.5 502.5 413.5 466.5C412.3 452.1 421.9 452.2 423.5 459C425.1 465.8 428 478.5 428 488C428 517.5 407.5 547.5 360.5 579.5C345.326 589.831 346.5 595.5 359 599C371.5 602.5 378.5 596.5 382.5 588.5C385.7 582.1 404.5 557.833 413.5 546.5C423 532.5 430.333 539 432 546.5C433 551 430.5 549 451 592.5C471.5 636 440 643.5 428 648C418.4 651.6 414.333 649.5 413.5 648C427.5 643 426 634.771 408.5 638C324.5 653.5 261 672 190 706.5L188 702.5C284.5 655.5 355.5 640.5 370 638C384.5 635.5 382 634.5 376.5 629C366.9 619 374.833 615.167 380 614.5C413.5 612 409 606.372 392 606C264 603.2 189.667 619.167 168.5 627.5V620.5C190 615.5 190 615 188 608C187.009 604.533 184 585.5 190 570.5C194.8 558.5 213.333 545.5 222 540.5C217.833 540.5 209.5 539.8 209.5 537C209.5 533.5 214 534.5 223 524C261.5 475.5 287 424 289.5 409C292 394 295 386.5 300.5 386.5C306 386.5 310.5 388 311.5 383C312.5 375 308.5 369 304.5 361C300.5 353 303 344 307.5 347C312 350 323.5 352.5 324.5 350.5C325.5 348.5 322 347.5 315.5 342C309 336.5 305.5 329.5 301.5 323.5C297.5 317.5 308 315 318 315C284.5 266.5 301.5 249.5 255.5 230C246.328 226.112 246 225 253 224C266.5 222 304.5 224.5 320.5 236C336.5 247.5 340 256 341.5 258C342.7 259.6 345 259.333 346 259C345.167 259.667 343.5 261.7 343.5 264.5C343.5 268 347.5 278 347.5 283C347.5 288 344.5 288.5 344.5 293C344.5 297.5 352 296.5 352 300.5C352 304.5 338.5 310.5 334 313.5C338 315 344.5 312.5 355.5 312C366.5 311.5 368.5 315.5 378 315.5C372.8 303.9 357.833 295.333 351 292.5C354.5 288 372 283 389.5 281.5C359 280.5 354.8 277.5 356 265.5C357 255.5 359 249.5 361.5 249.5C364 249.5 366.5 254 370 258C374 249.5 381 246 386 243.5C391 241 394.5 239.5 394.5 246C393.5 263 402.5 269 404.5 266.5C426.9 242.1 452.167 234 462 233C457 251 455 253.5 463 255C476.6 234.2 506.667 228 520 227.5C536.5 226.5 583 224.5 608 263.5C615.5 256.5 631 245.5 639 244.5C645.4 243.7 652 246.833 654.5 248.5C661.5 241.5 680.3 226.5 699.5 222.5C723.5 217.5 765.5 212 788 241C810.5 270 812 312 808.5 346.5Z" fill="url(#paint5_radial_5893_5)"/>
<path d="M344.5 472C351 458 371 448.5 377.5 451C389.5 455.615 384.7 472.6 379.5 481C373 491.5 351 495 347 494.5C343 494 338 486 344.5 472Z" fill="#FAD324"/>
<path d="M321 422C324.5 418 327.5 415.5 332.5 418C335.333 419.333 342.7 423.3 349.5 428.5C347.5 431.5 339.5 431 329.5 430C319.5 429 317.5 426 321 422Z" fill="#FAD324"/>
<path d="M364.5 444C362.1 442.8 366.167 438.167 368.5 436C375 435.667 387.9 435.6 387.5 438C387 441 384 439 377 439.5C370 440 367.5 445.5 364.5 444Z" fill="#FAD324"/>
<path d="M701 241C716.5 245 707.5 253.5 701 263.5C685.5 287.346 689.5 295.9 685.5 299.5C672 311 665 308 656 288C647 268 657.5 262 663 253C668.5 244 685.5 237 701 241Z" fill="#FAD324"/>
<path d="M668 338C664.5 337 668 328 679.5 322.5C691 317 689.3 325.1 686.5 327.5C683 330.5 671.5 339 668 338Z" fill="#FAD324"/>
<path d="M669.5 376C669 366.5 676 349 691.5 349C693.167 349.5 696.2 351.6 695 356C693.5 361.5 679 369.5 677 373C675 376.5 670 385.5 669.5 376Z" fill="#FAD324"/>
<path d="M607 342.5C623.8 336.5 642.667 324.667 650 319.5C653 345 617.6 355.2 610 356C600.5 357 590.2 348.5 607 342.5Z" fill="#FAD324"/>
<path d="M627 478C634.5 459.5 620 449 599.5 452.5C587.5 456 583.567 468.161 585.5 482.5C587.928 500.51 619.5 496.5 627 478Z" fill="#FAD324"/>
<path d="M662 449C667 471.5 669 479 664.5 482.5C662 477.167 656.6 464.7 655 457.5C653 448.5 660 442.5 662 449Z" fill="#FAD324"/>
<path d="M662.5 417.5C656.5 418.5 637 428 636.5 428.5C643 431.5 662.5 431.5 670 428.5C677.5 425.5 668.5 416.5 662.5 417.5Z" fill="#FAD324"/>
<path d="M612 422C657.5 409 668 397 661 396C641.833 392.5 610.167 375.5 599.5 391.5C595.5 397.5 594 401 595 393C596 385 589.5 375 588 382C586.4 390 573 407.667 566.5 415.5C555.5 432.5 566.5 439.5 577 432.5C590.6 424.9 602 413 612 413C612.667 413.667 613.6 416.4 612 422Z" fill="#FAD324"/>
</g>
</g>
<defs>
<filter id="filter0_d_5893_5" x="164.5" y="214.498" width="671.199" height="555.002" filterUnits="userSpaceOnUse" color-interpolation-filters="sRGB">
<feFlood flood-opacity="0" result="BackgroundImageFix"/>
<feColorMatrix in="SourceAlpha" type="matrix" values="0 0 0 0 0 0 0 0 0 0 0 0 0 0 0 0 0 0 127 0" result="hardAlpha"/>
<feOffset dx="2" dy="2"/>
<feGaussianBlur stdDeviation="3"/>
<feComposite in2="hardAlpha" operator="out"/>
<feColorMatrix type="matrix" values="0 0 0 0 0.443137 0 0 0 0 0.141176 0 0 0 0 0 0 0 0 0.5 0"/>
<feBlend mode="normal" in2="BackgroundImageFix" result="effect1_dropShadow_5893_5"/>
<feBlend mode="normal" in="SourceGraphic" in2="effect1_dropShadow_5893_5" result="shape"/>
</filter>
<linearGradient id="paint0_linear_5893_5" x1="500" y1="0" x2="500" y2="1000" gradientUnits="userSpaceOnUse">
<stop stop-color="#FAF036"/>
<stop offset="1" stop-color="#EC6710"/>
</linearGradient>
<linearGradient id="paint1_linear_5893_5" x1="1000" y1="0" x2="0" y2="1000" gradientUnits="userSpaceOnUse">
<stop offset="0.245224" stop-color="#FEFCDC" stop-opacity="0"/>
<stop offset="0.498375" stop-color="#FEFCDC"/>
<stop offset="0.749533" stop-color="#FEFCDC" stop-opacity="0"/>
</linearGradient>
<linearGradient id="paint2_linear_5893_5" x1="59" y1="59" x2="941" y2="941" gradientUnits="userSpaceOnUse">
<stop offset="0.142462" stop-color="#F9760B"/>
<stop offset="0.796149" stop-color="#FEEA3D"/>
<stop offset="0.853416" stop-color="#FEFBC8"/>
</linearGradient>
<linearGradient id="paint3_linear_5893_5" x1="86" y1="86" x2="914" y2="914" gradientUnits="userSpaceOnUse">
<stop offset="0.142462" stop-color="#F9CD30"/>
<stop offset="0.853416" stop-color="#DA5702"/>
</linearGradient>
<linearGradient id="paint4_linear_5893_5" x1="500" y1="86" x2="500" y2="914" gradientUnits="userSpaceOnUse">
<stop stop-color="#900C0C" stop-opacity="0"/>
<stop offset="1" stop-color="#900C0C"/>
</linearGradient>
<radialGradient id="paint5_radial_5893_5" cx="0" cy="0" r="1" gradientUnits="userSpaceOnUse" gradientTransform="translate(421.5 398.5) rotate(90.7102) scale(242.019 242.019)">
<stop stop-color="#FEFABE"/>
<stop offset="1" stop-color="#FEFABE" stop-opacity="0"/>
</radialGradient>
<clipPath id="clip0_5893_5">
<rect width="1000" height="1000" rx="500" fill="white"/>
</clipPath>
</defs>
</svg>
