<svg width="32" height="32" viewBox="0 0 32 32" fill="none" xmlns="http://www.w3.org/2000/svg">
<path d="M16 32C24.8366 32 32 24.8366 32 16C32 7.16343 24.8366 0 16 0C7.16343 0 0 7.16343 0 16C0 24.8366 7.16343 32 16 32Z" fill="#0098EA"/>
<path d="M21.463 8.93011H10.5363C8.52731 8.93011 7.25394 11.0973 8.26468 12.8492L15.0082 24.5377C15.4483 25.3009 16.5511 25.3009 16.9911 24.5377L23.7361 12.8492C24.7454 11.1001 23.4721 8.93011 21.4644 8.93011H21.463ZM15.0027 21.0325L13.5341 18.1901L9.99045 11.8522C9.75668 11.4466 10.0454 10.9267 10.535 10.9267H15.0014V21.0338L15.0027 21.0325ZM22.0062 11.8509L18.4639 18.1915L16.9953 21.0325V10.9254H21.4617C21.9512 10.9254 22.2399 11.4452 22.0062 11.8509Z" fill="white"/>
</svg>
