<svg width="40" height="40" viewBox="0 0 40 40" fill="none" xmlns="http://www.w3.org/2000/svg">
<path d="M20 40C31.0457 40 40 31.0457 40 20C40 8.95429 31.0457 0 20 0C8.95429 0 0 8.95429 0 20C0 31.0457 8.95429 40 20 40Z" fill="#0098EA"/>
<path d="M26.0777 11H13.9216C11.6865 11 10.2699 13.411 11.3943 15.3601L18.8966 28.3637C19.3862 29.2128 20.6131 29.2128 21.1027 28.3637L28.6065 15.3601C29.7294 13.4141 28.3128 11 26.0792 11H26.0777ZM18.8905 24.4641L17.2567 21.3019L13.3143 14.2509C13.0542 13.7996 13.3754 13.2213 13.9201 13.2213H18.889V24.4656L18.8905 24.4641ZM26.682 14.2494L22.7411 21.3035L21.1072 24.4641V13.2198H26.0762C26.6208 13.2198 26.942 13.7981 26.682 14.2494Z" fill="white"/>
</svg>
