<svg width="32" height="32" viewBox="0 0 32 32" fill="none" xmlns="http://www.w3.org/2000/svg">
<path d="M16 32C24.8366 32 32 24.8366 32 16C32 7.16343 24.8366 0 16 0C7.16343 0 0 7.16343 0 16C0 24.8366 7.16343 32 16 32Z" fill="#272B4F"/>
<path d="M22.0777 7.00002H9.92159C7.68651 7.00002 6.26986 9.41101 7.39433 11.3601L14.8966 24.3637C15.3862 25.2128 16.6131 25.2128 17.1027 24.3637L24.6065 11.3601C25.7294 9.41412 24.3128 7.00002 22.0792 7.00002H22.0777ZM14.8905 20.4641L13.2567 17.3019L9.31428 10.2509C9.05421 9.79963 9.37544 9.22131 9.92006 9.22131H14.889V20.4656L14.8905 20.4641ZM22.682 10.2494L18.7411 17.3035L17.1072 20.4641V9.21978H22.0762C22.6208 9.21978 22.942 9.7981 22.682 10.2494Z" fill="white"/>
</svg>
