<svg width="32" height="32" viewBox="0 0 32 32" fill="none" xmlns="http://www.w3.org/2000/svg">
<g clip-path="url(#clip0_1993_9560)">
<path d="M16 32C24.8366 32 32 24.8366 32 16C32 7.16344 24.8366 0 16 0C7.16344 0 0 7.16344 0 16C0 24.8366 7.16344 32 16 32Z" fill="url(#paint0_linear_1993_9560)"/>
<mask id="mask0_1993_9560" style="mask-type:alpha" maskUnits="userSpaceOnUse" x="0" y="0" width="32" height="32">
<path d="M16 32C24.8366 32 32 24.8366 32 16C32 7.16344 24.8366 0 16 0C7.16344 0 0 7.16344 0 16C0 24.8366 7.16344 32 16 32Z" fill="url(#paint1_linear_1993_9560)"/>
</mask>
<g mask="url(#mask0_1993_9560)">
<g filter="url(#filter0_f_1993_9560)">
<path d="M7.84083 5.76204C15.9408 4.37804 24.6618 9.53204 27.3218 17.272C29.9818 25.013 25.5718 32.41 17.4728 33.794C9.37383 35.177 0.65283 30.024 -2.00717 22.283C-4.66717 14.542 -0.25717 7.14504 7.84083 5.76204Z" fill="url(#paint2_linear_1993_9560)"/>
</g>
<g filter="url(#filter1_f_1993_9560)">
<path d="M27.1784 22.0501C20.8564 27.2981 10.7264 27.1951 4.55341 21.8211C-1.62059 16.4481 -1.50059 7.83705 4.82241 2.58905C11.1444 -2.65795 21.2744 -2.55595 27.4474 2.81805C33.6214 8.19205 33.5014 16.8021 27.1794 22.0501H27.1784Z" fill="url(#paint3_linear_1993_9560)"/>
</g>
</g>
<path d="M22.4052 7.03966C21.8879 6.96012 21.3589 7.00548 20.8627 7.17196C20.3729 7.33505 19.9308 7.61634 19.5757 7.99095C18.9079 8.70194 18.7 9.62804 18.8602 10.5559C19.006 11.392 19.1986 12.2407 19.2418 13.0462C19.3019 14.2626 19.1069 15.4781 18.6694 16.6147C18.2734 17.6479 17.7082 18.4489 16.4986 18.6262C16.4086 18.6397 16.0819 18.6487 15.9892 18.6532C15.8298 18.6536 15.6706 18.6449 15.5122 18.6271C14.3017 18.4498 13.732 17.6488 13.336 16.6093C12.8988 15.4726 12.7042 14.2571 12.7645 13.0408C12.8077 12.238 13.0003 11.3884 13.1461 10.5496C13.3063 9.62264 13.0984 8.69564 12.4306 7.98465C12.0742 7.61026 11.6309 7.32957 11.14 7.16745C10.6428 7.0022 10.1132 6.95838 9.59563 7.03966C8.04314 7.27995 7.00905 8.58945 7.00005 9.96194C6.99639 10.4941 7.14809 11.0159 7.43655 11.4631C7.91984 12.2191 8.71274 12.7717 9.40483 13.3441C9.86293 13.7275 10.654 14.8156 11.0428 15.9937C11.2768 16.7074 11.4694 17.431 11.6593 18.1609C11.9248 19.1788 12.2911 21.427 12.5323 22.4475C13.0138 24.4905 14.4853 24.9531 15.9613 24.9999H16.0144C17.4904 24.9531 18.9862 24.4896 19.4677 22.4466C19.708 21.4261 20.0725 19.177 20.3407 18.1609C20.5315 17.4337 20.7223 16.7065 20.9572 15.9928C21.3459 14.8138 22.137 13.723 22.5951 13.3432C23.2872 12.769 24.0792 12.2182 24.5634 11.4622C24.8518 11.0149 25.0035 10.4932 24.9999 9.96104C24.9909 8.58495 23.9622 7.27545 22.4052 7.03966Z" fill="white"/>
</g>
<defs>
<filter id="filter0_f_1993_9560" x="-3.84862" y="4.47072" width="33.0119" height="30.6144" filterUnits="userSpaceOnUse" color-interpolation-filters="sRGB">
<feFlood flood-opacity="0" result="BackgroundImageFix"/>
<feBlend mode="normal" in="SourceGraphic" in2="BackgroundImageFix" result="shape"/>
<feGaussianBlur stdDeviation="0.533333" result="effect1_foregroundBlur_1993_9560"/>
</filter>
<filter id="filter1_f_1993_9560" x="-1.06627" y="-2.34696" width="34.1335" height="29.3334" filterUnits="userSpaceOnUse" color-interpolation-filters="sRGB">
<feFlood flood-opacity="0" result="BackgroundImageFix"/>
<feBlend mode="normal" in="SourceGraphic" in2="BackgroundImageFix" result="shape"/>
<feGaussianBlur stdDeviation="0.533333" result="effect1_foregroundBlur_1993_9560"/>
</filter>
<linearGradient id="paint0_linear_1993_9560" x1="2.609" y1="4.348" x2="26.435" y2="28.87" gradientUnits="userSpaceOnUse">
<stop stop-color="#649A66"/>
<stop offset="1" stop-color="#2B4CCF"/>
</linearGradient>
<linearGradient id="paint1_linear_1993_9560" x1="2.609" y1="4.348" x2="26.435" y2="28.87" gradientUnits="userSpaceOnUse">
<stop stop-color="#649A66"/>
<stop offset="1" stop-color="#2B4CCF"/>
</linearGradient>
<linearGradient id="paint2_linear_1993_9560" x1="8.64083" y1="32.48" x2="12.7548" y2="20.464" gradientUnits="userSpaceOnUse">
<stop stop-color="#8FEBFF"/>
<stop offset="1" stop-color="#2B4CCF" stop-opacity="0"/>
</linearGradient>
<linearGradient id="paint3_linear_1993_9560" x1="14.4314" y1="1.40205" x2="14.1794" y2="26.3091" gradientUnits="userSpaceOnUse">
<stop stop-color="#49F150"/>
<stop offset="1" stop-color="#2B4CCF" stop-opacity="0"/>
</linearGradient>
<clipPath id="clip0_1993_9560">
<rect width="32" height="32" fill="white"/>
</clipPath>
</defs>
</svg>
