<svg width="40" height="40" viewBox="0 0 40 40" fill="none" xmlns="http://www.w3.org/2000/svg">
<path d="M20 40C31.0457 40 40 31.0457 40 20C40 8.9543 31.0457 0 20 0C8.9543 0 0 8.9543 0 20C0 31.0457 8.9543 40 20 40Z" fill="#4C5AF5"/>
<path d="M25.694 12.0352C25.2336 11.9644 24.7619 12.0047 24.3223 12.1525C23.8827 12.3003 23.4892 12.5508 23.1783 12.881C22.5848 13.513 22.4001 14.3358 22.5426 15.1602C22.6717 15.9038 22.843 16.6584 22.8815 17.3747C22.9354 18.4536 22.7626 19.5318 22.3732 20.5465C22.0208 21.4647 21.5188 22.1767 20.4429 22.3343C20.3631 22.3462 20.0726 22.3548 19.9901 22.359C19.9077 22.3633 19.6468 22.3471 19.5661 22.3352C18.4902 22.1776 17.9836 21.4656 17.6322 20.5414C17.2428 19.5267 17.07 18.4485 17.1239 17.3696C17.1624 16.6559 17.3337 15.9004 17.4628 15.1551C17.6053 14.3306 17.4206 13.5079 16.8271 12.8759C16.5151 12.546 16.1207 12.296 15.6803 12.1491C15.2398 12.0022 14.7675 11.963 14.3069 12.0352C12.9271 12.249 12.0081 13.4125 12.0001 14.633C11.9962 15.1033 12.1307 15.5652 12.3883 15.9668C12.8177 16.6397 13.5224 17.1303 14.1375 17.6396C14.5445 17.9803 15.2483 18.947 15.5935 19.9946C15.8024 20.6292 15.9727 21.2722 16.1413 21.9212C16.3779 22.8258 16.7034 24.8239 16.9177 25.731C17.3453 27.5469 18.6543 27.9583 19.9659 28H20.0125C21.3242 27.9583 22.6547 27.546 23.0824 25.7302C23.2957 24.8231 23.6203 22.8241 23.8588 21.9204C24.0282 21.2748 24.1977 20.6283 24.4065 19.9938C24.7517 18.9462 25.4555 17.976 25.8625 17.6387C26.4776 17.1277 27.1814 16.6388 27.6117 15.966C27.8693 15.5644 28.0038 15.1024 27.9999 14.6321C27.9928 13.4091 27.0774 12.2448 25.694 12.0352Z" fill="white"/>
</svg>
