<svg width="16" height="16" viewBox="0 0 16 16" fill="none" xmlns="http://www.w3.org/2000/svg">
<path d="M12.5552 1.62817C12.1869 1.57149 11.8095 1.60375 11.4578 1.722C11.1061 1.84024 10.7914 2.04065 10.5426 2.30478C10.0678 2.81037 9.92002 3.46859 10.0341 4.12816C10.1374 4.723 10.2744 5.3267 10.3052 5.89975C10.3483 6.76283 10.2101 7.62543 9.8985 8.43721C9.61664 9.17174 9.21498 9.74137 8.3543 9.86743C8.29046 9.87697 8.05806 9.88378 7.99208 9.88719C7.92611 9.8906 7.71739 9.87765 7.65283 9.86811C6.79215 9.74205 6.38689 9.17242 6.10575 8.43313C5.79419 7.62133 5.65595 6.75875 5.69908 5.89566C5.7299 5.32466 5.86691 4.72027 5.97018 4.12407C6.08423 3.46449 5.93648 2.80628 5.46165 2.3007C5.21209 2.03676 4.89656 1.8368 4.54419 1.71926C4.19182 1.60172 3.81398 1.5704 3.4455 1.62817C2.34167 1.7992 1.6065 2.72997 1.60004 3.70638C1.59696 4.0826 1.70452 4.45216 1.91061 4.77342C2.25416 5.31172 2.81791 5.70418 3.30994 6.11165C3.63557 6.38421 4.19859 7.15758 4.47475 7.99567C4.64186 8.50331 4.77813 9.01775 4.91298 9.53696C5.10233 10.2606 5.36268 11.8591 5.5341 12.5848C5.87623 14.0375 6.92339 14.3666 7.97272 14.4H8.01001C9.05934 14.3666 10.1237 14.0368 10.4659 12.5841C10.6365 11.8584 10.8962 10.2592 11.087 9.53628C11.2225 9.01979 11.3581 8.50262 11.5252 7.99499C11.8013 7.1569 12.3644 6.38081 12.69 6.11097C13.182 5.70215 13.7451 5.31104 14.0893 4.77274C14.2954 4.45147 14.403 4.08191 14.3999 3.70569C14.3942 2.72724 13.6619 1.79579 12.5552 1.62817Z" fill="white"/>
</svg>
