<svg width="32" height="32" viewBox="0 0 32 32" fill="none" xmlns="http://www.w3.org/2000/svg">
<path d="M16 32C24.8366 32 32 24.8366 32 16C32 7.16344 24.8366 0 16 0C7.16344 0 0 7.16344 0 16C0 24.8366 7.16344 32 16 32Z" fill="#272B4F"/>
<path d="M21.694 8.03525C21.2336 7.96439 20.7619 8.00472 20.3223 8.15253C19.8827 8.30033 19.4892 8.55085 19.1783 8.88101C18.5848 9.51299 18.4001 10.3358 18.5426 11.1602C18.6717 11.9038 18.843 12.6584 18.8815 13.3747C18.9354 14.4536 18.7626 15.5318 18.3732 16.5465C18.0208 17.4647 17.5188 18.1767 16.4429 18.3343C16.3631 18.3462 16.0726 18.3548 15.9901 18.359C15.9077 18.3633 15.6468 18.3471 15.5661 18.3352C14.4902 18.1776 13.9836 17.4656 13.6322 16.5414C13.2428 15.5267 13.07 14.4485 13.1239 13.3696C13.1624 12.6559 13.3337 11.9004 13.4628 11.1551C13.6053 10.3306 13.4206 9.50788 12.8271 8.8759C12.5151 8.54598 12.1207 8.29603 11.6803 8.14911C11.2398 8.00218 10.7675 7.96303 10.3069 8.03525C8.92711 8.24903 8.00815 9.41249 8.00008 10.633C7.99623 11.1033 8.13068 11.5652 8.38829 11.9668C8.81773 12.6397 9.52242 13.1303 10.1375 13.6396C10.5445 13.9803 11.2483 14.947 11.5935 15.9946C11.8024 16.6292 11.9727 17.2722 12.1413 17.9212C12.3779 18.8258 12.7034 20.8239 12.9177 21.731C13.3453 23.5469 14.6543 23.9583 15.9659 24H16.0125C17.3242 23.9583 18.6547 23.546 19.0824 21.7302C19.2957 20.8231 19.6203 18.8241 19.8588 17.9204C20.0282 17.2748 20.1977 16.6283 20.4065 15.9938C20.7517 14.9462 21.4555 13.976 21.8625 13.6387C22.4776 13.1277 23.1814 12.6388 23.6117 11.966C23.8693 11.5644 24.0038 11.1024 23.9999 10.6321C23.9928 9.40908 23.0774 8.24477 21.694 8.03525Z" fill="white"/>
</svg>
